<?xml version="1.0" encoding="UTF-8"?><svg id="Layer_1" xmlns="http://www.w3.org/2000/svg" viewBox="0 0 1253.18 1765.71"><defs><style>.cls-1{fill-rule:evenodd;}.cls-1,.cls-2{fill:#c7945c;stroke-width:0px;}</style></defs><path class="cls-2" d="M323.86,1563.34c-6.54-9.28-13.07-18.28-19.62-26.93-6.52-8.69-13.44-17.42-20.73-26.22l-201.7-239.41-1.51.76v220.54c0,11.81.72,21.08,2.11,27.73,1.38,6.66,3.92,11.69,7.72,15.08,3.78,3.39,8.85,5.65,15.25,6.8,6.41,1.11,14.78,2.06,25.06,2.78l-.74,13.59c-8.03,0-17.52-.1-28.48-.39-10.91-.23-22.42-.35-34.46-.35-9.58,0-19.56.12-30,.35-10.42.29-20.02.39-28.81.39l-1.16-12.82c10.06-1,18.34-2.18,24.91-3.56,6.52-1.39,11.75-4.23,15.63-8.51,3.89-4.25,6.62-10.68,8.1-19.22,1.52-8.55,2.26-20.36,2.26-35.44v-188.87c0-10.57-.15-19.11-.39-25.65-.25-6.51-.82-11.86-1.67-16.02-.9-4.15-2.1-7.6-3.61-10.36-1.51-2.77-3.52-5.66-6.03-8.67-2.52-3.25-5.01-6.02-7.54-8.27-2.5-2.29-5.37-4.15-8.66-5.67-3.28-1.51-7.3-2.63-12.08-3.38-4.8-.77-10.68-1.4-17.72-1.92l.75-13.55c3.03,0,7.49.07,13.39.19,5.9.13,12.5.2,19.82.2s14.8.05,22.58.18c7.82.14,15.09.2,21.89.2l241.29,284.63,1.13-.74v-218.29c0-11.84-.67-21.08-2.09-27.74-1.36-6.66-3.94-11.68-7.72-15.09-3.74-3.36-8.9-5.65-15.47-6.76-6.49-1.13-14.93-2.07-25.23-2.81l.75-13.59c8.03,0,17.59.12,28.64.38,11.06.22,22.64.37,34.69.37,4.78,0,9.8-.07,15.09-.2,5.28-.12,10.49-.24,15.65-.38,5.16-.13,10.06-.24,14.73-.38,4.61-.12,8.69-.19,12.21-.19l.37,12.82c-9.76,1-17.84,2.27-24.11,3.78-6.27,1.5-11.25,4.41-14.9,8.67-3.65,4.28-6.21,10.7-7.73,19.22-1.51,8.53-2.26,20.37-2.26,35.44v283.51l-19.61,3.77Z"/><path class="cls-2" d="M428.68,1545.24c9.78-.74,17.69-1.93,23.75-3.55,6.05-1.63,10.75-4.16,14.14-7.56,3.38-3.4,5.69-8.06,6.97-13.96,1.24-5.9,1.9-13.63,1.9-23.16v-253.75c0-6.03-.52-11.06-1.51-15.08-1.01-4.01-3.21-7.35-6.62-10.01-3.39-2.61-8.21-4.58-14.51-5.82-6.31-1.28-14.54-2.14-24.89-2.66l.77-13.55c3.99,0,8.9.07,14.69.19,5.8.12,11.93.2,18.45.2s13.68.04,20.57.17c6.9.13,13.38.21,19.41.21,4.77,0,10.13-.08,16.03-.21,5.9-.13,11.78-.17,17.53-.17s11.27-.08,16.4-.2c5.15-.12,9.49-.19,13-.19l1.52,12.82c-9.78.73-17.81,1.93-23.94,3.57-6.14,1.66-10.99,4.15-14.5,7.54-3.54,3.39-5.9,8.03-7.19,13.95-1.25,5.92-1.87,13.51-1.87,22.81v254.11c0,6.02.49,11.04,1.51,15.09.98,4.01,3.16,7.34,6.39,10,3.26,2.64,8.03,4.57,14.32,5.83,6.31,1.26,14.73,2.15,25.27,2.64v13.57c-4,0-9.06-.05-15.09-.19-6.02-.13-12.42-.2-19.24-.2s-13.17-.06-19.96-.19c-6.75-.12-13.18-.18-19.22-.18-5.04,0-10.43.06-16.22.18-5.8.13-11.55.19-17.33.19s-11.25.07-16.42.2c-5.14.14-9.49.19-13,.19l-1.11-12.83Z"/><path class="cls-2" d="M620.2,1452.86c5.01,13.1,10.36,25.16,16.01,36.19,5.67,11.1,12.45,20.72,20.38,28.88,7.89,8.15,17.14,14.56,27.7,19.23,10.52,4.65,23.26,6.95,38.08,6.95,9.8,0,18.86-1.61,27.13-4.91,8.33-3.26,15.6-7.88,21.89-13.94,6.28-6.03,11.17-13.14,14.7-21.3,3.53-8.14,5.29-17.14,5.29-26.95,0-12.3-2.28-22.86-6.8-31.67-4.54-8.8-10.57-16.39-18.09-22.81-7.56-6.4-16.09-12-25.63-16.77-9.57-4.77-19.37-9.43-29.39-13.95-11.35-5.02-22.72-10.56-34.12-16.6-11.44-6.02-21.7-13.18-30.74-21.47-9.03-8.31-16.47-17.85-22.24-28.66-5.8-10.81-8.68-23.63-8.68-38.47,0-15.83,3.21-29.83,9.62-42.04,6.41-12.18,15.09-22.41,25.99-30.71,10.96-8.29,23.65-14.56,38.13-18.85,14.42-4.28,29.82-6.43,46.19-6.43s30.43,1.22,43.9,3.6c13.42,2.39,27.84,5.6,43.16,9.61-.76,8.06-1.38,15.53-1.89,22.42-.5,6.93-.82,13.69-.94,20.36-.12,6.66-.25,13.45-.35,20.37-.12,6.91-.19,14.39-.19,22.44l-15.84,1.49c-2.27-26.62-10.39-46.55-24.32-59.75-13.95-13.19-32.73-19.79-56.38-19.79-9.05,0-17.35,1.39-24.88,4.15-7.55,2.78-14.05,6.83-19.61,12.08-5.53,5.28-9.84,11.55-12.98,18.84-3.19,7.3-4.75,15.45-4.75,24.51,0,12.08,1.97,22.17,5.85,30.36,3.9,8.16,9.2,15.25,16.03,21.3,6.79,6.03,14.66,11.21,23.54,15.63,8.96,4.38,18.31,8.76,28.11,13,12.09,5.27,24.19,11.07,36.41,17.34,12.19,6.32,23.09,13.72,32.78,22.25,9.68,8.55,17.52,18.47,23.59,29.78,6.01,11.33,9.03,24.66,9.03,39.96,0,17.11-3.57,32.24-10.57,45.43-7.04,13.21-16.34,24.4-27.9,33.58-11.58,9.19-24.86,16.14-39.96,20.9-15.06,4.77-30.52,7.18-46.37,7.18-13.81,0-28.15-1.4-42.99-4.14-14.82-2.79-30.5-6.53-47.14-11.35-1.75-16.57-3.9-32.12-6.39-46.74-2.52-14.56-5.93-30.17-10.22-46.75l15.87-3.79Z"/><path class="cls-2" d="M1066.58,1188.59c27.41,0,52.59,4.33,75.59,13,22.98,8.68,42.68,21.06,58.98,37.16,16.35,16.08,29.09,35.5,38.3,58.27,9.15,22.72,13.72,48.17,13.72,76.32s-4.47,53.62-13.55,77.11c-9.06,23.51-21.73,43.8-38.07,60.89-16.35,17.09-35.98,30.42-58.81,39.97-22.87,9.55-48.27,14.33-76.17,14.33s-52.54-4.34-75.41-13.01c-22.87-8.68-42.51-21.05-59-37.16-16.49-16.07-29.28-35.49-38.44-58.22-9.19-22.76-13.78-48.2-13.78-76.36s4.53-53.62,13.57-77.11c9.03-23.49,21.73-43.79,38.09-60.89,16.34-17.1,35.96-30.41,58.79-39.96,22.88-9.55,48.28-14.33,76.18-14.33M1064.35,1208.95c-17.36,0-34.03,2.82-49.96,8.49-15.99,5.64-30.05,14.78-42.25,27.33-12.19,12.56-21.91,28.82-29.23,48.83-7.28,19.96-10.91,44.29-10.91,72.95,0,33.68,4.12,61.94,12.41,84.82,8.33,22.9,18.99,41.29,32.04,55.26,13.09,13.93,27.74,23.87,43.95,29.78,16.21,5.88,32.34,8.84,48.43,8.84,17.36,0,33.98-2.81,49.96-8.49,15.97-5.62,30.03-14.78,42.23-27.33,12.2-12.56,21.94-28.81,29.23-48.84,7.28-19.94,10.9-44.26,10.9-72.93,0-33.67-4.14-61.97-12.44-84.83-8.27-22.85-18.95-41.29-32.04-55.22-13.06-13.98-27.7-23.89-43.89-29.79-16.25-5.92-32.4-8.86-48.44-8.86"/><path class="cls-2" d="M197.69,107.6c-7.42-18.38-11.17-37.86-17.7-56.54-.68-1.88-1.24-3.83-2.14-5.59-.75-1.6-1.9-2.77-3.9-2.58-1.92.19-3,1.5-3.5,3.17-2.61,8.31-5.09,16.64-7.72,24.92-.87,2.89-2.21,5.68-2.67,8.61-.87,4.93-3.29,4.58-7.18,3.12-10.73-3.9-20.84-9.11-31.1-14.15-6.33-3.12-9.13-2.21-9.88,4.72-.33,3.19-.49,6.43-.37,9.65.26,6.66.12,12.84-.89,19.43-1.25,8.1-1.39,8.38-9.18,8.19-7.63-.24-15.37-.28-22.76-2.63-1.99-.63-3.83-.96-5.87-.28-3.83,1.31-5.04,4.06-2.21,6.67,14.01,13.16,24.24,29.43,36.5,44.03,1.97,2.3,3.71,4.58,5.04,7.42,3.71,8.07,9.46,10.09,16.9,5.35,9.64-6.05,19.03-12.44,28.07-19.34,10.33-7.91,20.14-16.59,30.23-24.93,1.55-1.27,3.1-2.72,4.86-3.47,10.54-4.46,8.61-8.19,5.47-15.77ZM175.23,59.98c.09-.07.21-.09.31-.09,1.95-.24,2.11,3.94,2.51,5.21.54,1.64,1.01,3.31,1.55,4.97-2.67,2.82-5.37,5.56-7.77,8.59-1.01,1.29-2.02,2.63-2.89,4.03-.49.78-1.03,1.5-1.57,2.18-.44.56-.94,1.13-1.43,1.62-.33.75-.75,1.38-1.27,1.9-.14.21-.33.35-.45.52,1.1-1.57,1.9-3.85,2.49-7.09.84-4.58,2.18-9.06,3.71-13.49.63-1.76,1.08-4.2,2.16-5.75.45-.66,1.69-2.21,2.65-2.61ZM158.45,91.45c-7.74,3.17-17.27,3.03-25.79,4.29-4.6.68-9.44-1.71-14.55-.42.26-3.33.52-6.69.82-10.09,6.45-.31,12.93-.09,19.24-1.2.47-.09.99-.21,1.5-.35,4.34,2.21,8.59,4.39,13.05,6.15,2.23.92,4.13,1.46,5.73,1.62ZM119.84,75.35s-.12.02-.14.05v-.12s.12.05.14.07ZM117.99,97.55c1.67.16,3.05-.07,4.37.35,14.57,4.65,27.93,11.97,40.18,20.58,4.7,3.31,9.25,6.76,13.68,10.35-2.65,2.16-5.33,4.29-8,6.45-8.99-7.39-18.47-14.06-29.29-18.94-7.02-3.14-14.25-5.59-21.52-7.91.05-.68.07-1.31.09-2.11.12-2.93.31-5.87.49-8.78ZM94.59,133.53c6.57,2.37,13.09,4.88,19.57,7.72,9.86,4.34,20.14,7.67,30.28,11.55-3.83,2.47-7.7,4.79-11.73,6.88-.05,0-.09.02-.12.07-.94-.28-1.88-.56-2.84-.8-1.57-.37-3.24-.59-4.67-1.15-5.21-2.06-10.4-4.11-15.58-6.13-5.3-5.75-10.16-11.85-14.9-18.14ZM151.43,148.11c-.99-.7-1.92-1.41-2.89-2.14-19.53-14.43-41.68-22.25-64.12-29.19,2.91-1.41,5.59-1.1,8.43-.68,4.32.7,8.64,1.15,13,1.29,5.14.24,7.96-.02,9.58-1.6,7.21,2.79,14.29,5.84,21.29,9.22,4.65,2.28,10.44,3.97,13.71,7.91,2.82,3.45,6.1,6.27,9.6,8.85-2.86,2.16-5.7,4.27-8.59,6.34ZM184.76,122.06c-1.08.85-2.18,1.71-3.31,2.61-2.77-1.78-5.54-3.52-8.43-5.21-6.36-3.75-7.51-10.51-4.77-16.69.77-2.04,1.95-4.01,3.57-5.8,4.29-4.77,8.17-9.44,11.69-14.1,1.34,4.27,2.61,8.52,3.9,12.79-1.67,1.95-3.52,3.8-5.75,5.42-2.25,1.62-3.54,3.17-4.11,4.67-.31,2.49,1.5,4.88,5.49,7.27,2.56,1.53,5.14,2.96,7.7,4.44-1.29,1.1-3.19,2.42-5.99,4.6Z"/><path class="cls-2" d="M991.36,108.3c0,.09-.09.14-.14.23h.37l-.24-.23Z"/><path class="cls-2" d="M991.85,108.23c-.12,0-.31.07-.49.07,0,0,.24.23.28.23.09-.09.14-.19.21-.31"/><path class="cls-1" d="M849.04,611.71c5.45-.14,10.02-4.53,9.67-9.34-.37-5.99-6.31-12.72-11.05-12.6-3.64.07-9.01,6.34-9.06,10.61-.17,5.61,5.28,11.48,10.44,11.34"/><path class="cls-2" d="M1199.72,4.05c-2.11-3.8-5.47-4.95-9.41-3.36-3.68,1.53-38.18,19.13-51.91,26.1-22.98,11.69-46.12,23.16-68.88,35.25-15.75,8.33-31.97,15.63-47.97,23.42-26.43,12.95-53.23,25.44-79.33,39.15-28.16,14.78-57.22,27.88-85.61,42.22-25.7,12.98-51.72,25.49-77.66,38-17.56,8.45-35.34,16.29-52.92,24.55-3.47,1.6-10.47,4.84-10.47,4.84,0,0-1.97,2.09-6.27-5.61-2.51-4.51-5.87-7.09-11.24-6.88-11.5.52-21.61-4.34-31.8-8.59-9.65-4.01-16.59-1.64-21.64,7.44-6.08,10.91-13.1,20.56-24.88,26.73-6.64,3.45-11.48,9.69-11.88,19.29-.77,18.61-2.3,37.25-3.59,55.83-.52,7.65-2.32,15.23-3.4,22.86-2.42,16.24-12.74,24.97-27.79,28.87-4.55,1.17-7.65,4.06-10.8,7.02-7.67,7.04-14.95,14.55-23.35,20.82-3.76,2.74-7.04,6.05-12.51,3.35-3-1.48-5.82.94-8.17,2.84-4.22,3.33-8.57,6.57-12.44,10.23-18.16,17.11-38.84,30.88-59.8,44.21-6.17,3.97-11.62,8.99-18.35,12.35-4.88,2.42-8.71,2.25-13-.68-6.83-4.81-13.92-9.44-20.86-14.08-11.99-8.03-24.62-10.98-39.15-7.46-11.62,2.84-23.8,3.59-35.7,5.49-3.45.54-4.93-.59-5.47-3.92-1.53-9.37-4.74-18.33-2.14-27.58.59-2.32,4.06-5.09,6.2-6.33,9.11-5.19,15.14-14.22,24.97-18.54,7.58-3.36,14.1-8.03,13.52-17.91-.16-2.72,1.64-3.17,3.99-2.89,2.86.4,5.3-.68,7.49-2.37,4.29-4.04,7.7-3.54.14-6.62-4.95-2.51-5.73-7.18-5.4-11.99.28-4.34,2.7-6.52,4.34-10.56,3.9-9.83,6.36-18.77-7.35-26.07-4.48-5.73-4.39-6.38,1.57-9.98,5.54-3.38,9.22-7.49,9.81-14.13.42-4.27-.47-7.72-3.54-11.01-5.75-6.15-12.23-11.41-18.96-16.36-16.24-12.04-20.72-25.04-14.81-44.38,3.12-10.16.77-16.05-8.87-20.16-3.05-1.27-5.14-3.1-6.9-5.54-2.61-3.45-4.83-7.18-7.27-10.84-3.12-4.81-5.87-9.6-1.1-15,.63-.73.73-1.92,1.06-2.89,1.01-2.82.54-10.28.54-10.28,0,0-5,3.43-7.91,3.66-4.32.56-5.96-.31-5.75-4.86.05-1.97.16-4.04.02-6.01-.19-3.22-1.57-5.96-1.57-5.96,0,0-1.95,1.67-5.26,2.46-1.6.4-3.9-1.6-5.7-2.06-21.97-5.8-44.21-6.67-66.56-2.51-2.82.54-4.69,2.51-7.32,3.17-3.78.99-7.46,3.19-9.06-3.29-.89-3.54-5.16-3.94-7.23-1.15-6.38,8.61-15.87,13.12-24.41,18.73-8.71,5.63-15,13.61-21.08,21.31-14.43,18.14-27.39,37.78-31.12,61.07-3.43,21.54-3.97,43.46,1.88,64.94,2.3,8.31,2.91,16.8,7.14,24.92,5.61,10.89,14.25,18.24,22.88,26.05,8.19,7.42,17.6,14.83,21.33,25.75,1.5,4.62-.35,9.01-3.61,12.6-3.82,4.16-4.48,8.94-3.1,14.08,4.39,16.12.47,30.98-6.17,45.67-5.19,11.29-10.37,22.63-14.39,34.31-9.27,26.99-17.16,54.47-18.78,83.06-1.17,21.73,1.01,43.63,6.29,64.94,2.91,11.71,4.79,23.68,9.11,35.06,7.46,19.67,14.69,39.47,23.16,58.81,8.68,19.64,16.03,39.83,23.42,59.92,2.21,5.94,4.72,11.05,10.58,13.92,13.05,6.27,337.88,234.97,347.6,243.26,4.67,3.9,9.74,6.99,15.54,8.71,3.55,1.08,5.98-.09,6.13-4.2,0-3.66-24.13-197.56-27.46-218.05-.77-4.43-2.54-8.12-5.28-11.76-20.86-28.37-39.97-57.99-59.42-87.35-7.06-10.61-18.19-21.94-24.9-32.74l2.28-5.52c6.1,1.38,29.6,13.68,37.72,16.88,20.39,7.98,39.31,18.99,59.23,27.9,8.57,3.92,17.46,6.97,26.12,10.61,3.71,1.53,7.16.68,10.77-.21,11.19-2.79,21.43-8,31.4-13.42,25.37-13.73,51.4-26.12,77.87-37.64,28.96-12.56,58.44-23.8,87.02-37.1,13.07-6.08,27.25-9.13,40.95-13.66.63-.26,1.31-.19,1.95-.37,11.59-3.24,14.03-6.48,14.25-19.03l32.64-17.37s-14.9-43.65-15.91-55.88l-3.66-14.57c10.35-3.15,33.11,4.72,44.76,1.9,25.28-6.1,15.21-4.08,41-7.79,19.38-2.77,38.3-.78,56.98,2.67,12.84,2.42,25.25,2.06,37.83.89,10.73-.96,21.4-2.11,32.13-1.13,6.2.59,11.97-.28,17.67-2.67,2.44-1.03,5.05-2.3,7.7-2.37,13.26-.31,23.61-8.14,34.92-13.5,3.5-1.62,8.24-3.14,7.25-8.38-.99-5.02-5.4-7.42-9.76-9.22-1.69-.75-3.99-.31-5.96-.4-2.06-.02-4.22-.16-5.7-1.71-6.17-6.73-14.78-6.03-22.48-6.15-18.35-.31-36.89.19-55.27,1.17-18.63.94-35.32-6.41-52.64-11.17-.19-.07-.19-.61-.56-1.83,6.76-.87,12.3-4.46,17.48-8.61,5.77-4.58,11.27-9.55,17.6-13.28,2.56-1.53,4.81-3.83,6.69-6.1,5.14-6.1,3.52-11.41-4.08-13.54-2.82-.85-6.03-1.55-8.94-.52-6.92,2.56-14.65,3.47-20.58,7.93-8.52,6.48-18.24,7.88-28.37,8.96-9.88,1.08-19.79.7-29.64.8-22.29.14-8.38-3.14-30.28.19-16.9,2.61-32.97,6.31-48.25,15.23-9.93,5.8-14.2,6.34-19.2,13.19-2.21-2.49-5.23-2.53-9.01-1.1-3.76,1.43-7.75,2.18-11.67,3.1-4.03.94-8.57.89-8.57.89l-1.81-7.37c-2.11,1.01-3.29.17-10.33,3.97-33.26,17.98-66.42,35.04-99.86,51.98-25.25,12.82-51.65,22.53-77.8,33.12-7.16,2.89-14.55,5.16-21.8,7.77-8.71,3.22-17.93,1.64-26.07-3.29-5.02-3.05-5.09-4.81-.59-7.91,9.67-6.69,19.55-13.1,29.22-19.74,9.34-6.41,18.73-12.88,27.98-19.48,5.94-4.29,5.68-9.46,2.49-15.77-1.53-3.12,28.66-27.48,37.48-33.61,2.6-1.86-13.28-38.58-23.26-52.59-3.14-4.39-5.49-9.15-7.6-14.08,6.36-8.87,14.83-15.56,22.27-23.28,10.8-11.17,15.02-24.92,16.52-39.87.99-10.65,2.28-21.31,4.06-31.82,1.29-7.04,5.14-9.04,12.04-7.93,9.9,1.57,12.04.96,14.55-8.68,3.35-12.77,10.56-24.78,8.14-38.84-.7-4.25.99-6.36,5.61-5.35,1.67.33,3.31.52,5.02.47,7.53-.24,11.29-3.57,10.02-11.01-.7-4.27-5.42-9.04-5.42-9.04,0,0,11.57-5.61,15.42-7.35,20.02-9.34,40.09-18.68,60.01-28.3,21.45-10.35,42.88-20.84,64.12-31.52,21-10.54,41.68-21.38,63.04-31.12,9.44-4.32,18.47-9.48,27.74-14.1,24.36-11.97,48.79-23.7,73.06-35.86,15.56-7.77,31.57-14.81,46.85-23.07,16.31-8.73,32.65-17.2,49.31-25.23,15-7.3,69.68-34.01,72.61-36.38,3.05-2.46,5.26-4.46,3.26-8.07ZM584.67,377.33c-4.95,4.72-2.09,6.95,8.45,21.19,5.45,7.25,11.73,13.8,17.23,21.03-5.49-7.2-11.78-13.8-17.23-21.03-10.54-14.24-13.4-16.47-8.45-21.19ZM449.61,467.21c20.98-14.46,42.48-28.16,61.46-45.25,3.17-2.86,6.36-6.05,12.32-6.38-.19,2.65.07,5.14.56,7.51-8.1,7.25-16.62,14.06-25.39,20.65-3.8,2.86-7.75,5.42-11.73,7.77-11.78,7.18-24.34,12.11-37.36,15.79.09-.02.14-.05.14-.09ZM438.79,482.94c2.25-.35,4.29-1.2,6.24-2.28,1.92-1.17,3.8-2.44,5.8-3.54,1.43-.87,2.86-1.69,4.39-2.32,12.62-5.23,26.05-9.32,37.78-16.2,12.13-7.51,24.24-15.37,35.3-24.64,1.24,2.25,2.65,4.44,4.13,6.62.85,1.29,1.81,2.54,2.7,3.8-8.24,6.39-16.71,12.3-25.56,17.41-4.69,2.77-9.48,5.35-14.36,7.68-21,10-42.52,19.17-64.61,27.11-11.41,4.13-23.49.31-33.98,5.7-.33.21-.68.42-1.01.66-.19.12-.33.14-.47.19-.47.31-.92.59-1.43.92-1.55,1.15-3.26-1.15-5.49-1.15,3.26,5.49,9.88,6.48,14.48,8.03,32.81,11.12,55.22,35.32,76.79,60.64,5.45,6.48,9.65,17.95,18.02,16.12.63-.14,1.24-.42,1.9-.73,5.23-3.54,9.72-11.38,10.63-18.07,2.63-19.76,14.27-34.48,24.43-49.99,9.41-14.39,20.7-26.76,34.27-35.93,3.12,3.05,6.38,6.06,9.67,9.01-.73.37-1.45.7-2.13,1.1-2.23,1.31-4.27,2.77-6.15,4.46-14.41,13.33-28.42,27.88-35.86,47.17-5.56,14.65-12.32,28.8-18,43.33-2.23,5.54-8.45,8.07-9.48,14.34-.17,1.17-1.2,1.83-2.35,2.06-.85,1.15-2.65,1.48-4.04,1.03-9.06-2.96-20.54-4.84-24.9-12.77-10.91-19.5-29.27-31.1-43.63-46.75-13.85-15.23-33.02-21.26-50.62-29.8-4.93-2.42-8.21-5.45-11.08-9.46-4.58-6.45-4.65-10.07.14-12.11,1.57-1.24,4.22-2.09,8.07-2.63,20.06-3,40.25-6.01,60.41-9.01ZM452.56,509.65c3.97,6.45,7.91,13.35,15.26,16.29,1.1.47,1.92.61,2.58.61.42-1.2-.05-3.1-.7-4.81-2.32-6.15-1.95-10.42,2.82-12.46,1.48-1.17,3.68-1.97,6.81-2.3,1.24-.12,2.46-.61,3.71-1.22,1.01-.7,2.04-1.45,2.96-2.23,1.31-1.2,2.7-2.11,4.16-2.89,5.65-3.8,11.92-4.09,17.67-.73,6.64,3.85-3.99,7.84-1.34,12.44,15.21-15.47,30.35-31.03,46.63-45.51,2.49,2.79,5.07,5.56,7.72,8.26-4.55,3.73-9.08,7.53-13.47,11.48-17.51,15.79-33.09,33.07-41.98,55.48-1.9,4.72-4.93,7.98-8.54,9.76-5.89,4.06-13.94,3.59-21.22-1.76-12.48-9.13-25.11-18.02-35.44-29.71-1.36-1.6-3.19-2.54-4.04-4.84-3.66-9.41-3.26-15.72,2.54-18.21,2.11-1.67,5.54-2.47,10.35-2.28,16.41.68,30.3-4.2,43.04-11.34,12.18-7.07,23.37-16.05,34.83-24.01,4.27-2.98,8.78-5.71,13.21-8.45,2.61,3.38,5.28,6.64,7.95,9.88-12.18,8.75-25.02,16.66-38.02,24.27-2.11,1.24-4.27,2.49-6.41,3.71-15.56,9.04-31.42,17.48-50.15,18.21-.26,0-.52.07-.87.12-.47.59-.59,1.29-.05,2.23ZM320.55,464.91c11.6-1.74,23.49-2.49,34.64-5.77,12.32-3.61,22.44-.52,32.08,4.36-13.85,1.53-27.83.85-41.75,1.31-8.47.33-16.9.35-25.25.09h.28ZM337.26,473.17c19.03,1.6,37.69-3.08,56.49-6.15,3.08,1.76,6.13,3.59,9.2,5.33,1.46.8,2.25,2.37,2.96,3.97-21.22,3.5-42.2,8.19-63.76,7.89-22.27-.24-44.12-4.3-65.88-9.2-10.28-2.35-21.12-4.03-31.4-4.93-19.15-1.62-34.76-11.76-52.05-17.56-7.32-2.42-14.57-5-21.85-7.56,1.03-3.75,1.71-7.51,1.92-11.33,10.49,3.71,20.98,7.46,31.4,11.36,14.55,5.4,28.24,12.81,44.26,14.32,17.74,1.71,35.23,5.99,52.81,8.87,11.95,1.92,24.06,4.03,35.91,5ZM174.71,390.75c13.73,4.55,125.04,38.11,131.24,39.64,0,0,1.69,10.94,4.08,26.89,0,0-131.8-54.12-138.09-57.22,0,0,3.59-9.01,2.77-9.32ZM160.49,364.09c-6.55-5.28-12.49-11.17-18.5-16.95-6.1-5.89-10.84-13.31-12.86-21.24-8.73-34.92-13.21-70.05,4.34-103.83,10.84-20.79,22.62-41.16,44.19-53.2,1.53-.82,2.68-1.83,3.85-3.08,3.1-3.42,6.31-5.94,11.22-2.74,1.88,1.17,3.83-.14,5.7-.94,13.89-5.82,27.95-11.34,43.32-10.65,15.56.66,31.19,1.12,46.19,6.15,1.9.63,1.85,2.3,1.53,4.16-1.41,8.94-1.36,8.92,7.82,9.5,1.6.09,3.38-.12,5.23,2.18-.54,1.01-.91,2.04-1.57,2.7q-6.48,6.99-.28,13.54c2.79,2.96,5.23,6.03,7.49,9.41,4.13,6.05,8.03,12.25,15.18,15.58,4.04,1.9,4.53,6.03,2.91,9.55-3.31,7.34-2.93,14.71-2.46,22.48.56,8.99,4.65,15.7,10.3,22.01,7.39,8.19,16.59,14.34,25.02,21.45,4.2,3.59,3.99,7.32,2.82,11.59-1.08,3.94-5.37,4.81-8.12,7.14-7.91,6.67-8.38,9.76-1.43,17.11,5.89,6.13,7.13,12.81,5.3,21.22-1.53,7.25-4.22,14.86-1.29,22.6.5,1.24,1.03,2.91-.77,3.22-7.04,1.17-6.45,6.73-6.83,11.59-.37,4.9-2.81,8.24-7.06,10.28-12.44,6.13-23,15.07-32.93,24.43-4.6,4.37-7.93,4.37-13,3.07-12.13-2.96-23.54-7.81-35.16-12.23-25.7-9.86-52.92-14.69-79.07-23.02-3.12-.99-5.14-2.32-6.73-5.33-3.71-6.69-8.45-12.96-14.34-17.77ZM170.84,412.62c2.58.92,5.14,1.81,7.68,2.79,1.83.68,3.54,1.85,5.33,1.57.49-.7.84-1.88.84-2.91,8.61,3.75,17.51,6.62,26.24,9.93-3.61-.66-7.25-1.08-11.08-1.01,15.98,7.82,32.13,13.1,48.37,17.74,1.01.28,1.97.49,2.98.77,10.89,4.93,21.71,9.83,32.69,14.5,7.14,3.03,14.25,6.43,21.76,8.17-28.23-2.09-55.9-7.84-82.84-18.71-16.59-6.62-33.28-13.07-50.2-18.89-.24-2.54-.63-5.09-1.36-7.7-.19-.63-.28-1.34-.37-1.97-.16-1.76-.21-3.17-.02-4.3ZM143.59,669c.82-1.38,1.99-2.32,3.47-2.96,3.07-2.37,8.12-2.51,12.13-3.38,18.92-3.99,36.35,1.97,53.39,9.6,18.1,8,37.83,11.9,52.59,27.34,5.16,5.33,5.52,8.42,2.54,13.14-1.22,1.81-2.58,2.86-4.06,3.43-3.14,2.46-7.06,1.67-11.05-.56-11.48-6.24-24.95-7.46-36.07-14.69-.7-.44-1.99-1.57-3.19-1.71-.05.1-.12.17-.21.31-1.06,2.37,1.15,3.17,3.36,4.3,33.44,16.71,66.02,34.64,91.97,62.5,1.29,1.36,1.9,3.69,4.04,3.05,1.81-1.81-.66-3.87-.99-5.77-1.48-8.43-7.02-14.83-11.2-21.78-12.11-20.23-24.15-40.62-45.83-52.62-15.86-8.85-32.13-16.43-49.29-22.98-21.78-8.26-43.32-10.35-64.7-8.64-.82-3.26-1.69-6.48-2.46-9.74-.16-.82-.28-1.62-.49-2.42,7.39-.21,14.69.59,22.11-.12,33.51-3.12,63.51,11.03,91.9,24.99,19.76,9.76,38.09,25.46,50.16,46.24,7.04,12.09,17.44,22.04,21.54,36,2.04,6.95,4.67,13.1,1.95,21.05-1.5,4.39-3.45,6.59-5.8,7.49-3.24,2.63-7.39,1.55-12.04-.42-7.32-3.05-13.68-7.95-18.85-13.68-16.33-18.33-37.6-29.31-58.37-41.05-9.74-5.45-18.99-12.3-29.36-15.65-14.27-4.6-27.22-14.29-42.76-13.92-2.06.05-3.97-.31-5.84-.84-3.19-8.71-6.01-17.56-8.59-26.5ZM157.89,710.07c-.4-.92-.73-1.83-1.1-2.75,8,1.67,15.94,3.71,23.35,8.07,14.43,8.52,30.3,14.97,45.27,22.88,18.12,9.58,35.13,21.03,52.99,30.86,15.16,8.31,28.14,17.53,38.47,31.52,5.61,7.63,9.79,15.72,13.75,24.08,1.01,2.06,2.61,4.65,5.49,3.71,1.15-1.22,1.29-3.03,1.2-5.23-.12-13.07,1.88-26,1.83-39.19-.14-14.67-1.74-28.51-6.59-42.01-4.7-12.86-12.09-23.75-20.82-34.76-8.42-10.63-16.26-21.36-26.66-30.23-20.3-17.25-42.64-29.71-68.41-37.29-11.48-3.35-22.32.75-32.62-1.57-16.33-3.73-32.43-4.6-48.61-3.52-.66-3.8-1.24-7.6-1.76-11.41,8.1-.42,16.31.26,23.98-1.53,24.76-5.8,47.83,1.48,70.59,7.82,35.74,10.05,62.59,34.08,88.97,59.94,25.51,25.06,31.61,55.79,36.02,89.2-3.22,12.39-.16,25.46.14,38.51.31,9.65-2.96,15.51-10.42,20.54-.57.35-1.1.61-1.64.92-.09.07-.14.12-.26.19-8.47,5.61-17.58,4.04-21.36-5.65-5.12-13.21-13.49-23.89-22.72-34.13-6.5-7.27-14.67-12.13-22.86-16.85-28.26-16.36-55.97-34.1-85.45-47.97-8.14-3.85-16.43-7.2-24.88-10.18-1.99-4.65-4.04-9.27-5.91-13.97ZM271.03,852.62c-.92-.8-1.81-1.6-2.72-2.37-14.36-11.64-29.15-22.84-44.1-33.49-9.83-7-19.55-14.34-30.11-20.25-.84-1.53-1.62-3.15-2.25-4.9-1.69-4.86-3.71-9.53-5.8-14.22,5.98,1.99,11.85,4.27,17.53,7.2,25.79,13.38,47.41,33.16,70.9,49.99,14.65,10.47,26.69,24.2,35.7,40.16,1.5,2.72,2.96,5.52,4.32,8.28-14.97-9.48-28.63-20.72-43.46-30.39ZM339.16,879.19c-.45.31-.92.56-1.36.77-.19.12-.35.21-.54.33-6.81,4.46-13.73-1.92-17.2-7.2-19.5-30.06-41.84-57.5-71.65-77.54-21.85-14.71-45.01-26.96-69.91-35.46-1.15-2.75-2.28-5.47-3.26-8.31-.85-2.44-1.83-4.86-2.77-7.3,8.94,3.08,17.81,6.31,26.73,9.13,27.37,8.75,50.76,26.43,74.28,43.02,13.54,9.6,22.41,23.8,33.79,35.48,7.79,7.91,16.52,15.47,22.25,24.81,3.61,5.89,6.99,6.88,10.14,5.52,1.1-.77,2.13-1.81,3.17-2.96,10.02-11.22,14.97-25.77,17.88-39.97,3.61-17.25,5.07-35.3,5.02-52.99-.14-16.69,2.11-34.4-9.69-49.17-5.59-7.02-11.22-14.27-15.58-22.08-14.15-25.18-36.4-40.77-60.93-53.32-18.33-9.39-36.45-18.02-57.29-22.67-21.36-4.79-42.36-8.71-64.12-9.25-8.66-.24-17.3,0-25.77.56-.37-4.13-.63-8.21-.82-12.34,5.94.37,11.97,2.06,18.05,1.67,32.57-2.23,64.94,1.69,95.64,11.71,18.28,5.96,35.91,15.47,53.11,25.25,15.04,8.54,28.33,18.75,40.67,30.13,7.18,6.59,13.4,14.78,17.39,24.15,4.86,11.08,15.44,18.24,18.5,31.19,3.57,15.07,6.88,29.85,4.25,45.2-1.9,11.05.75,21.97-.91,33.14-2.89,19.78-7.18,38.91-17.23,56.18-5.3,9.08-13.22,16.69-21.83,22.32ZM372.23,895.26c-1.81,1.38-3.19,4.32-3.43,6.69-.63,5.52-2.49,10.58-4.83,15.4-1.86-1.08-3.73-2.18-5.59-3.29-2.11-1.24-4.13-2.56-6.15-3.87,3.83-11.52,9.44-22.04,16.29-32.36,6.29-9.39,13.17-19.08,15.91-30.77,2.09-8.59,5.12-16.92,8.12-25.25,11.08-30.86,18.42-61.37,5.35-94.3-12.48-31.4-30.74-57.71-56.37-79.07-15.98-13.33-33.51-23.87-51.82-34.15-26.4-14.83-53.7-21.75-82.77-24.27-25.11-2.21-50.25-4.55-75.59-2.25,0-2.58,0-5.16.07-7.74.02-.99.17-1.97.19-2.93,7.23-.66,14.53-1.31,21.71-1.9,11.59-.92,22.93.42,34.24.59,23.84.31,47.15,5.66,70.38,11.38,17.23,4.27,31.99,13.52,47.99,20.18,14.58,6.08,27.74,13.54,38.58,25.16,1.74,1.88,3.57,3.71,5.66,5.04,11.29,7.2,18.37,18.68,28.09,27.44,10.16,9.01,13.03,22.41,20.72,32.62,12.37,16.41,18.92,34.17,19.6,54.66,1.03,30.06-7.95,57.94-17.15,85.87-2.68,8.26-3.4,17.23-8.36,24.67-7.09,10.73-9.81,24.22-20.84,32.46ZM376.19,924.79c6.36-21.12,16.54-40.46,25.23-60.48,11.34-25.89,24.92-50.86,28.05-79.65,2.37-21.45,4.03-42.59-3.22-63.91-6.71-20.04-17.16-37.76-28.4-55.2-7.37-11.48-16.57-21.29-27.08-30.13-10.7-9.01-24.13-15-32.39-26.33-7.39-10.25-17.98-15.18-27.88-21.29-29.71-18.33-64.8-17.18-97.16-25.96-16.43-4.36-33.14-8.1-50.95-5.75-9.65,1.27-19.29,1.97-28.94,2.79.54-3.85,1.31-7.72,2.11-11.52,6.05-.52,12.09-1.06,18.09-2.02,22.58-3.66,42.83,2.23,64.05,5,20.91,2.58,41.16,8.52,61.79,12.42,18.33,3.47,36.24,12.7,53.04,23.59,14.76,9.62,27.18,21.61,41.12,31.73,16.4,11.9,27.34,28,38.21,44.19,7.84,11.73,18.28,23,22.22,35.72,4.86,15.79,11.6,31.96,10.75,49.33-.14,4.01,0,8.07,0,12.13-.07,31.03-9.27,59.07-22.32,87.28-12.91,27.91-26.99,55.74-35.04,85.64-3.76-2.54-7.51-5.09-11.29-7.58ZM560.49,1047.72c.66,6.03-3,8.26-8.45,5.45-.44-.26-.87-.56-1.29-.87.99-1.08,2.02-2.16,3.05-3.22,2.11-2.28,4.11-4.6,6.15-6.99.14,1.88.3,3.76.54,5.63ZM555.71,977.45c1.13,9.6,1.69,19.24,2.14,28.89-5.09,11.34-10.96,22.34-17.49,33-.7,1.08-1.41,2.11-2.13,3.12-3.12-2.58-6.36-5.14-9.58-7.63,13.68-18.21,21.5-38.4,26.82-59.4.07.7.14,1.36.24,2.02ZM539.44,874.84c1.39,6.36,2.86,12.74,4.16,19.13.77,3.99,1.45,7.98,2.14,11.97-2.68,9.11-5.19,18.33-8.82,27.2-7.07,17.41-9.9,36.45-21.31,52.29-4.06,5.68-5.33,13.45-8.26,20.04-1.69,3.75-.85,7.23,2.11,8.52.35.14.61.16.89.19.77-1.15,1.2-2.96,1.88-4.01,13.14-19.53,22.58-41.02,29.9-63.39,2.65-8.1,4.88-16.36,6.33-24.74,1.64,10.68,3.12,21.33,4.48,32.06-.56,1.48-1.13,3-1.79,4.48-6.62,14.83-14.1,29.38-21.07,44.05-3.94,8.29-8.71,15.87-16.12,21.15-3.59-2.61-7.23-5.14-10.84-7.63-3.47-2.42-6.95-4.81-10.42-7.18,2.09-10.58,8.45-19.22,12.86-28.54,13.94-29.59,22.65-60.95,32.95-91.76.44-1.34.8-3.22.16-4.32-2.74-5.12-1.64-7.98.77-9.51ZM464.15,736.87c21.17,31.47,42.57,62.8,64.05,94.21,2.65,3.87,5.09,8.05,5.61,12.72.87,7.81,2.28,15.56,3.92,23.23-6.41,21.83-16.22,42.34-25.32,63.11-5.52,12.44-11.17,24.76-16.5,37.27-5.12,12.02-6.9,24.85-8.89,37.6-4.39-3.03-8.73-6.1-13.1-9.18.12-.82.21-1.71.28-2.58,1.78-25.11,15.42-45.44,25.39-67.24,11.71-25.63,23.52-51.18,31.57-78.27.73-2.58,1.27-5.16,1.69-7.77-1.01-1.99-2.18-3.9-3.43-5.75-2.37-3.5-4.72-6.99-7.09-10.49-1.69,9.34-3.61,18.61-5.82,27.9-6.59,27.91-19.08,52.55-32.17,77.33-4.01,7.51-6.39,16.03-8.94,24.22-3.73,11.92-7.16,23.99-10.75,35.98-3.57-2.58-7.11-5.21-10.63-7.86,5.07-15.44,11.34-30.51,16.81-45.83,6.59-18.68,16.83-35.53,24.34-53.77,4.39-10.51,6.88-21.52,8.47-32.43,1.78-12.42,10.07-22.34,10.3-35.3.02-.82.07-1.67.09-2.51-3.05-4.48-6.08-8.96-9.08-13.42-2.11,13.42-5.52,26.64-10.7,39.64-4.58,11.55-4.01,23.98-9.32,35.65-9.01,19.71-20.21,38.25-30.35,57.36-6.9,13.05-11.05,26.4-14.22,40.32-4.34-3.33-8.71-6.62-13.07-9.93,5.75-20.09,14.13-38.96,22.91-57.83,9.95-21.29,22.93-40.84,28.66-64.49,4.83-19.99,12.11-39.43,13.02-60.1-4.39-6.57-8.85-13.16-13.31-19.74-3.99,20.23-3.64,41.03-12.91,61-10.44,22.53-17.41,46.75-29.48,68.88-6.67,12.35-13.9,25.14-17.11,38.63-1.83,7.65-4.34,15.07-6.73,22.51-3.85-2.79-7.7-5.52-11.5-8.26,3.8-12.32,8.19-24.48,12.95-36.61,4.53-11.34,10.56-21.83,16.36-32.01,11.48-20.11,17.23-42.13,25.25-63.37,6.81-17.91,4.93-37.48,8.57-55.76,1.08-5.61,1.13-10.84.66-15.86-.05-.05-.07-.12-.14-.17-6.59-9.93-12.56-20.37-18.8-30.56-.49-.75-.89-1.48-1.24-2.25.31.66.68,1.29,1.06,1.95,6.2,9.98,12.09,20.16,18.66,29.85ZM714.19,694.51c-1.01-.96-1.95-1.92-2.98-2.84-4.04-3.76-9.5-5.59-14.81-3.54-2.51,2.39-.09,6.57-.57,9.74-.23,1.57-.35,3.14-.47,4.67-4.88,2.11-9.83,4.2-14.69,6.29-.14-6.12.09-12.23.02-18.33-.09-4.95,3.66-9.27,8.8-11.9,6.22-4.06,15.44-5.42,22.16-1.6,5.63,3.22,10.8,7.49,15.72,11.88-4.39,1.85-8.82,3.75-13.19,5.63ZM741,683.13c-8.17-8.21-16.05-16.71-23.09-26.05-5.21-6.9-19.36-10.02-25.98-7.2-.38.26-.66.59-.92.96-5.91,8.78-13.28,18.66-14.06,28.56-.87,10.61-1.97,21.29-2.3,31.97-3.52,1.46-7.02,2.89-10.42,4.58-1.43.73-2.84,1.43-4.27,2.16.28-12.7,1.48-25.53,1.88-38.16.28-11.57,9.76-19.43,11.67-30.72.47-2.79,3.45-9.5,7.98-11.41,1.38-1.03,2.89-1.71,4.58-1.62,6.85.31,13.59-.54,20.04-1.5,10.33-1.6,16.15,2.93,21.61,10.63,5.68,7.86,11.95,15.3,18.45,22.46,2.96,3.17,5.98,6.27,8.99,9.34-4.72,1.97-9.44,3.99-14.15,6.01ZM779.11,667.22c-4.2,1.71-8.36,3.45-12.53,5.19-10.75-10.12-22.29-19.83-30.39-31.57-13.9-20.16-32.01-24.17-53.39-21.8-3.24.37-6.43,1.38-9.41,2.91-4.23,2.63-7.75,6.24-9.25,10.35-4.6,12.67-15.91,21.26-16.83,37.01-.7,12.56-2.79,25.51-1.57,37.95.56,5.7,1.1,11.43,1.76,17.13-4.53,2.28-9.03,4.55-13.59,6.83-.99-6.27-1.92-12.6-2.58-19.01-2.65-26.78,2.18-52.57,11.05-77.24,2.16-6.01,6.34-13.73,14.18-17.58,1.53-.96,3.19-1.79,5.04-2.4,12.42-3.9,24.01-8.35,37.79-9.13,26.07-1.5,39.66,13.8,54.03,31.24,8.47,10.25,17.63,19.97,26.82,29.64-.4.16-.75.31-1.13.47ZM829.12,499.34c.87,1.74,37.39,117.6,37.39,117.6l-30.44,15.68s-27.72-112.56-31.75-128.8l24.81-4.48ZM792.79,499.67c2.18,5.37,4.67,8.94,5.7,13.26.42,1.62.85,3.19,1.24,4.81-5.73-4.06-11.5-8.1-17.32-11.97,3.4-2.02,6.81-4.03,10.37-6.1ZM765.07,515.46c4.01-1.97,7.86-4.18,11.8-6.45,8.31,4.29,16.45,9.08,24.27,14.29,1.74,6.62,3.52,13.21,5.35,19.79-9.67-6.48-19.5-12.81-29.45-18.94-4.55-2.77-9.22-5.3-13.92-7.72.66-.33,1.29-.63,1.95-.96ZM751.56,522.22c20.93,11.24,40.55,24.95,60.01,39.26,1.88,6.78,3.66,13.61,5.4,20.42-23.75-19.99-48.98-37.79-77.1-51.59-.77-.4-1.53-.73-2.3-1.08,4.67-2.35,9.32-4.67,13.99-7.02ZM707.57,544.14c2.32,1.48,5,2.25,7.11,3.78,10,7.11,22.27,9.39,31.78,17.65,8.31,7.18,16.4,14.62,24.71,21.83,19.67,17.16,41,32.34,58.77,51.59,1.29,8.07.35,10.05-6.97,12.39-9.53-9.81-20.11-18.68-30.81-27.25-17.93-14.34-35.95-28.58-53.2-43.84-14.18-12.56-30.86-19.97-49-25.96-.77-.23-1.5-.42-2.25-.66,6.64-3.12,13.26-6.31,19.88-9.53ZM628.09,596.48c5.59-5.14,11.64-9.43,17.93-13.16,9.48-5.84,19.67-10.26,30.42-13.94,30.11-10.3,50.93,3.76,70.57,24.52,11.33,11.9,24.03,22.51,35.32,34.62,8.66,9.25,17.81,18.05,26.71,27.13-4.29,1.43-8.54,3.03-12.74,4.67-18.82-18.92-40.11-35.32-58.58-54.59-5.12-5.35-10.63-10.35-16.47-15.02-14.53-11.67-41.59-12.74-58.63-3.4-.87.54-1.67,1.1-2.49,1.69-8.43,6.31-17.3,11.99-25.11,18.89-12.56,11.12-15.16,27.27-18.17,42.57-4.74,24.17-.96,47.34,5.54,71.32,1.22,4.48,2.46,8.92,3.8,13.35-4.67,2.35-9.29,4.67-13.94,6.99-.54-2.18-1.06-4.37-1.52-6.59-2.77-13.47-6.85-26.9-9.51-40.41-3.87-19.31-1.34-37.27,1.95-55.39,3.05-16.92,12.02-31.38,24.92-43.25ZM581.95,598.19c8.12-3.33,16.22-6.62,24.34-9.88-1.78,2.37-3.66,4.67-5.26,6.59-11.87,13.78-11.22,30.6-13.75,46.54-4.79,30.98-1.08,61.35,9.6,90.85,1.71,4.76.75,9.88,1.95,14.95.09.37.19.75.33,1.15-3.97,1.57-8.1,2.84-12.18,4.18-.61.21-1.18.28-1.78.42-.24-.92-.45-1.81-.63-2.72-4.27-22.04-10.91-43.67-12.72-66.18-2.37-29.31,2.44-57.8,10.12-85.9ZM569.67,600.73c-3.21,11.64-5.4,23.66-6.55,35.98-3.76,39.94,9.11,77.49,16.19,115.82.24.07.49.16.73.21.84.26,1.62.42,2.46.54-2.04.07-4.06-.21-6.2-.8-10.49-2.79-20.42-6.85-30.18-11.31-21.62-10.02-42.69-21.24-64.54-30.63-4.27-1.88-8.85-3.71-12.42-6.64-4.62-3.76-10-5.23-15.33-7.2-1.88-.7-3.66-.99-5.33-.59,1.22-.87,2.54-1.29,3.9-1.24-6.27-14.71-14.64-28.37-24.85-41.19-6.22-7.82-12.91-15.18-19.08-22.86-8.89-11.19-19.97-18.82-31.14-26.71-2.39-1.71-6.29-3.19-5.68-5.94,2.54-11.52-7.18-13.16-13.26-16.47-25.89-14.03-52.76-26.19-80.64-35.51-14.6-4.88-30.13-6.85-45.25-10.16-26.8-5.8-54.21-3.97-81.16-4.06-4.11,0-8.19.28-12.25.66,1.22-4.53,2.47-9.01,3.85-13.47,6.36,0,12.67.02,18.92-.4,12.96-.92,26.17,1.85,39.22,1.57,18.5-.45,36.5,1.62,54.5,5.73,21.22,4.93,40.98,14.01,61.68,20.51,25.86,8.19,46.19,26.43,70.57,37.01,13.73,5.98,18.33,20.35,26.03,31.03,11.31,15.94,27.2,27.76,36.24,46.12,6.36,12.93,14.62,24.78,19.64,38.82.33.94.61,1.9.85,2.86.33.23.66.4.94.66,3.64,2.98,8.21,4.86,12.6,6.76.28.14.59.28.92.44-5.77-14.93-11.48-29.88-18.17-44.31-9.95-21.29-21.68-42.01-36.82-59.66-11.31-13.21-26.43-23.73-41.17-33.37-36.47-23.87-75.64-42.03-118.07-52.24-27.01-6.45-53.7-13.59-81.79-14.39-14.29-.44-28.33-.07-42.32,1.08.8-2.56,1.64-5.04,2.51-7.58.85-2.61,1.81-5.16,2.75-7.72,15.14-.75,30.42-.54,45.72.66,17.91,1.41,35.56,4.43,53.18,8.94,18.4,4.69,37.2,7.93,55.18,14.53,31.38,11.43,61.02,26.24,88.5,45.32,23.59,16.33,47.45,32.69,63.37,57.36,9.9,15.4,19.01,31.66,26.4,48.39,7.39,16.81,15,33.61,19.2,51.52,3.31,1.55,6.55,3.15,9.81,4.74-1.9-13.85-5.89-27.18-11.76-39.97-1.79-3.9-1.74-8.36-2.44-12.02-1.74-10-7.91-15.42-13.85-22.48-5.42-6.36-8.82-16.01-10.8-24.29-2.46-10.21-8.75-17.08-15.11-23.09-21.52-20.25-43.7-39.73-69.21-55.29-19.45-11.9-40.01-20.44-60.78-29.15-13.45-5.68-28.4-3.97-41.4-10.87-10.8-5.75-24.39-3.5-33.8-15.3-3.59-4.6-15.65-5.77-23.89-6.5-17.01-1.41-33.96-3.31-51.33-1.22-7.65.89-15.42-.19-23.28-.89,1.57-3.9,3.19-7.77,4.83-11.62,3.59-.16,7.18-.31,10.68-.4,14.43-.35,29.27-.56,43.89-.12,17.79.49,34.31,7.28,51.89,8.75,4.18.4,9.15,1.15,10.91,5.87,2.47,6.52,7.98,7.91,13.38,8.69,34.38,4.95,66.35,18.02,95.21,35.91,34.83,21.52,69.59,44.36,93.41,79.96,9.04,13.61,19.57,26.8,26.99,40.97,7.91,15.09,11.05,33.02,14.64,50.32,1.99,9.72,3.64,19.41,4.84,29.15,5.23,2.58,10.51,5.14,15.82,7.67-3.78-14.27-7.25-28.61-10.21-43.11-6.85-33.65-7.02-67.08-2.16-100.85.14-1.03.63-2.63.14-3.22-10.84-11.95,1.86-20.23,4.98-29.64,2.44-7.28,7.2-14.22,12.13-20.18,12.58-14.93,27.13-27.72,43.44-38.23,2.63,2.21,5.3,4.41,8.07,6.52-20.11,13.24-37.01,30.23-49.22,52.85-5.04,9.48-3.82,20.37-6.05,30.53-8.17,36.5-4.58,72.73,3.71,108.97,3.4,14.74,7.39,29.29,11.38,43.84,1.38.56,2.72,1.13,4.06,1.67-8.64-30.63-15.44-61.94-14.32-93.85.73-19.64,2.98-38.93,8.02-57.17.7.63,1.5,1.2,2.42,1.69,3.71,2.16,7.39,3.17,11.1,3.31ZM612.32,534.26c1.1-.78,2.25-1.46,3.26-2.44.54-.49.96-.99,1.38-1.48-.68,1.71-1.9,3.43-3.73,5.14-1.01.92-2.16,1.64-3.26,2.37-17.27,11.66-34.45,23.37-51.77,34.9-2.72,1.83-4.58,3.29-5.87,4.74.8-2.56,3.07-4.55,7.51-7.51,2.98-1.99,5.91-4.04,8.89-6.03,7.3-13.75,17.06-26.52,29.95-37.83,3.75-3.29,7.6-6.13,11.5-8.75.73.52,1.48,1.06,2.18,1.57,3.43,2.32,5.16,4.97,5.35,7.72-6.64,4.6-12.77,10.04-18.28,16.36,4.27-2.93,8.57-5.84,12.89-8.75ZM618.86,515.98c-5.37,1.15-81.69-77.28-86.76-90.61-1.78-4.48-1.83-8.57,2.23-11.8,12.56-10.47,23.23-23.14,37.43-33,7.79,15.89,61.42,83.71,84.28,103.31l-37.18,32.1ZM649.98,468.6c-11.5-10.12-19.85-21.4-28.89-34.85-1.27-1.95-.99-3.71,1.29-4.88,1.95-1.12,3.76-2.67,5.94,0,9.64,11.9,16.66,25.23,21.66,39.73ZM618.98,421.33c4.86-2.37,8.57-6.41,12.27-10.16-3.71,3.75-7.41,7.79-12.27,10.16ZM858.53,173.01c-.09,0-.12.02-.19.02.07-.02.09-.05.19-.05.05-.02.07-.07.07-.14,0,.09-.02.12-.07.16ZM991.64,108.54h-.42c.02-.09.14-.14.14-.23.19,0,.38-.07.49-.07h.05c-.12.12-.17.21-.26.31Z"/><path class="cls-2" d="M483.99,534.26c3.61,5,5.8,7.44,7.58,7.39,1.18-1.36,2.37-3.99,3.9-7.98,1.15-2.72,2.09-5.61,3.38-9.27-1.34.82-2.51,1.53-3.54,2.09-7.51,4.48-9.25,4.62-18.99,3.38,1.31,2.93,5.61,1.48,7.67,4.39Z"/><path class="cls-2" d="M187.1,676.67c9.15,3.24,18.33,6.48,27.46,9.76-8.36-5.45-17.58-8.57-27.46-9.76Z"/><path class="cls-2" d="M225.99,691.41c5.52,4.06,10.61,6.13,15.68,7.58-4.15-3.76-8.28-7.86-15.68-7.58Z"/><path class="cls-2" d="M350.26,1721.1c0,13.16-2.98,23.89-8.95,32.19-5.92,8.28-13.53,12.4-22.76,12.4-5.27,0-11.17-1.44-17.74-4.32-6.52-2.87-10.73-4.35-12.63-4.35-.76,0-1.5.14-2.31.41-1.06.21-1.8.49-2.38.77l-.79-1.39c1.85-1.44,3.19-3.45,4.14-6.08.39-1.36.76-2.98.99-4.81.3-1.85.44-3.82.44-5.92v-72.58c0-3.49-.51-5.92-1.41-7.4-.99-1.44-2.59-2.31-4.9-2.59v-1.87c3.19-.83,6.24-2.15,9.2-3.93,2.94-1.78,5.48-3.89,7.73-6.25h2.13v55.02c1.9-2.82,3.75-5.09,5.53-6.87,1.74-1.73,3.63-3.29,5.71-4.6,3.82-2.25,7.93-3.4,12.37-3.4,7.84,0,14.06,3.17,18.69,9.48,4.63,6.34,6.94,15.01,6.94,26.09M337.01,1729.87c0-11.98-1.55-20.98-4.7-26.99-3.05-6.01-7.79-9.04-14.15-9.04-3.22,0-6.34.97-9.3,2.91-2.84,1.97-5.5,4.77-7.84,8.37v34.62c0,7.1,1.53,12.63,4.6,16.54,3.01,3.93,7.31,5.88,12.97,5.88,5.97,0,10.53-2.8,13.67-8.42,3.17-5.64,4.74-13.6,4.74-23.87"/><path class="cls-2" d="M421.02,1748.99c-1.8,2.66-3.68,5.02-5.71,7.1-2.03,2.08-4.32,3.89-6.71,5.41-4.69,2.82-9.81,4.21-15.38,4.21-9.21,0-16.86-3.63-22.94-10.87-6.08-7.29-9.11-16.61-9.11-28.01,0-6.45.69-12.19,2.03-17.25,1.34-5,3.38-9.39,6.22-13.14,5.44-7.42,12.81-11.12,22.14-11.12,8.03,0,14.48,3.15,19.31,9.46,2.57,3.22,4.56,7.01,6.04,11.43,1.46,4.37,2.2,9.25,2.2,14.71h-44.83c0,5.69.63,10.76,1.78,15.22,1.18,4.44,2.89,8.37,5.25,11.73,4.6,6.55,10.71,9.83,18.27,9.83,3.68,0,7.1-.93,10.43-2.73,1.55-.79,3.01-1.8,4.44-3.07,1.41-1.3,2.82-2.75,4.07-4.44l2.5,1.55ZM406.21,1712.59c0-7.52-1.34-13.37-4.02-17.63-2.66-4.21-6.48-6.36-11.45-6.36-5.46,0-9.6,2.29-12.35,6.8-2.75,4.51-4.12,11.2-4.12,20.05v1.25h23.41c1.87,0,3.4-.07,4.58-.23,1.18-.16,1.97-.35,2.47-.62,1.02-.6,1.48-1.67,1.48-3.26"/><path class="cls-2" d="M493.92,1757.99c-.79,1.2-1.67,2.31-2.62,3.21-1.02.95-2.01,1.78-3.21,2.54-2.13,1.3-4.42,1.97-6.82,1.97-3.17,0-5.6-.95-7.22-2.77-1.62-1.85-2.43-4.58-2.43-8.19v-1.18c-2.29,2.01-4.53,3.77-6.75,5.34-2.24,1.55-4.42,2.85-6.43,3.89-4.07,1.94-8.05,2.91-11.96,2.91-5.11,0-9.11-1.55-12.05-4.58-2.96-3.05-4.44-7.12-4.44-12.14,0-6.34,2.82-11.91,8.33-16.68,5.55-4.81,16.72-10.59,33.31-17.39v-11.7c0-4.72-.79-8.4-2.52-10.99-1.78-2.38-4.32-3.63-7.65-3.63-3.15,0-5.48.86-7.12,2.48-1.78,1.36-3.33,4.74-4.81,10.13-.6,1.92-1.67,3.7-3.24,5.23-1.6,1.34-3.31,1.99-5.16,1.99s-3.52-.69-4.91-2.01c-1.27-1.43-1.92-3.12-1.92-5.16,0-4.26,2.61-8,7.73-11.2,5.11-3.15,11.63-4.74,19.52-4.74s13.99,1.64,17.56,4.93c3.49,3.29,5.25,8.65,5.25,16.17v45.82c0,2.68.3,4.53.88,5.53.58,1.23,1.55,1.9,2.91,1.9.77,0,1.6-.28,2.36-.81.26-.12.51-.46.93-.88.37-.49.67-.88.88-1.16l1.62,1.18ZM471.62,1718.53c-10.8,4.42-18.25,8.58-22.3,12.49-4.05,3.86-6.08,8.35-6.08,13.39,0,4.16,1.06,7.56,3.24,10.2,2.13,2.61,5.04,3.91,8.58,3.91,2.57,0,5.3-.83,8.05-2.52,2.8-1.67,5.62-4.3,8.51-7.91v-29.56Z"/><path class="cls-2" d="M532.57,1755.28c-1.6,3.45-3.68,6.01-6.31,7.66-2.68,1.83-5.71,2.77-9.07,2.77-3.98,0-6.87-1.18-8.81-3.49-1.94-2.38-2.89-6.2-2.89-11.5v-57.75h-9.78v-3.77c4.39-1.44,7.59-3.52,9.64-6.25.81-1.04,2.08-3.72,3.91-8.05,1.02-2.29,1.92-6.15,2.96-11.57.79-4.51,1.57-9.02,2.38-13.55h3.82v38.05h14.48v5.13h-14.16v51.92c0,4.14.51,7.12,1.39,8.93.9,1.76,2.5,2.66,4.72,2.66.83,0,1.94-.28,3.33-.81.49-.3,1.04-.6,1.43-.83.35-.28.79-.65,1.2-1.02l1.76,1.46Z"/><path class="cls-2" d="M595.43,1742.03c0,7.08-2.38,12.77-7.29,17.16-4.81,4.35-11.33,6.52-19.31,6.52-4.42,0-8.88-.92-13.21-2.61-2.22-.88-4.42-1.97-6.64-3.26-2.22-1.27-4.44-2.75-6.71-4.51l5.09-15.17,2.22.49c1.39,6.64,4.05,11.86,8,15.75,3.98,3.84,8.54,5.78,13.74,5.78,3.84,0,7.15-1.3,9.92-3.88,2.73-2.57,4.09-5.78,4.09-9.55,0-3.21-1.11-5.97-3.24-8.3-1.02-1.04-2.71-2.31-5.11-3.82-2.45-1.5-5.55-3.17-9.39-4.95l-.63-.3c-14.69-6.96-22.04-14.8-22.04-23.52,0-6.82,2.15-12.26,6.57-16.38,4.35-4.1,10.25-6.15,17.67-6.15,1.87,0,3.7.16,5.46.44,1.71.32,3.49.9,5.34,1.69,3.72,1.34,7.38,3.47,10.92,6.29l-4.72,13.53-2.11-.51c-.69-2.94-1.53-5.48-2.52-7.61-.99-2.13-2.27-3.98-3.86-5.53-3.05-3.24-6.64-4.86-10.8-4.86-3.63,0-6.71,1.23-9.37,3.59-2.54,2.36-3.93,5.32-3.93,8.91,0,1.57.32,3.07.88,4.44.55,1.36,1.44,2.64,2.64,3.84,2.22,2.2,6.45,4.65,12.72,7.45l1.9.88c15.84,6.89,23.71,14.97,23.71,24.17"/><path class="cls-2" d="M709.99,1725.38c0,11.7-3.19,21.37-9.48,28.96-6.24,7.59-14.18,11.38-23.75,11.38s-17.51-3.75-23.82-11.24c-6.31-7.54-9.46-17.23-9.46-29.1s3.15-21.51,9.46-28.94c6.31-7.42,14.25-11.12,23.82-11.12s17.53,3.75,23.82,11.2c6.24,7.42,9.41,17.07,9.41,28.86M694.8,1725.96c0-12.54-1.48-21.92-4.49-28.1-3.01-6.17-7.57-9.25-13.56-9.25s-10.55,3.08-13.69,9.25c-2.96,5.85-4.42,14.92-4.42,27.18s1.48,21.9,4.46,28.03c2.98,6.06,7.54,9.11,13.65,9.11s10.41-2.98,13.44-9.04c3.12-6.06,4.6-15.08,4.6-27.18"/><path class="cls-2" d="M756.55,1655.18c0,1.83-.49,3.31-1.55,4.42-.42.42-.9.72-1.52.97-.58.23-1.18.39-1.85.39h-.88c-1.32-.16-2.15-.32-2.59-.6-.46-.25-1.04-.86-2.01-1.85-.3-.28-.62-.81-.99-1.41-.39-.63-.74-1.13-1.16-1.43-.93-.72-2.08-1.07-3.52-1.07-1.11,0-2.06.58-2.96,1.74-.46.55-.92,1.36-1.27,2.57-.42,1.2-.58,2.43-.58,3.68s.23,2.68.62,4.23c0,.16.53,1.76,1.67,4.93.88,2.57,1.46,5,1.85,7.31.39,2.24.63,4.9.63,7.91v.88h14.96v5.18h-14.96v57.55c0,3.7.44,6.43,1.43,8.07.9,1.69,2.38,2.5,4.4,2.5l.05,2.27h-24.98v-2.27c1.92,0,3.4-.93,4.32-2.75.99-1.69,1.5-4.32,1.5-7.89v-57.48h-9.85v-5.18h9.85c0-1.5-.05-3.26-.25-5.21-.07-1.97-.3-4.49-.6-7.49,0-1.94-.07-3.86-.23-5.74-.12-1.85-.23-3.51-.37-4.9,0-2.5.55-4.9,1.6-7.31.97-2.01,2.24-4.09,3.98-6.22,3.07-3.72,7.38-5.6,12.79-5.6,1.83,0,3.45.23,4.86.6,1.46.44,2.8,1.18,4.07,2.24,2.36,1.74,3.56,4.07,3.56,6.96"/><path class="cls-2" d="M823.65,1763.45h-24.77v-2.31c1.97,0,3.4-.9,4.26-2.68,1.02-1.69,1.48-4.35,1.48-7.86v-83.15c0-3.56-.46-6.04-1.5-7.47-.83-1.39-2.36-2.27-4.72-2.54v-1.87c3.22-.83,6.22-2.06,9.09-3.77,1.46-.9,2.89-1.9,4.21-2.94,1.39-1.11,2.61-2.25,3.72-3.47h2.48v105.22c0,3.65.44,6.31,1.3,7.93.88,1.48,2.38,2.36,4.46,2.61v2.31Z"/><path class="cls-2" d="M860.54,1763.45h-25.05v-2.31c1.92,0,3.4-.93,4.33-2.75,1.02-1.57,1.55-4.21,1.55-7.89v-45.68c0-3.47-.49-5.99-1.44-7.45-.95-1.43-2.52-2.36-4.79-2.68v-1.87c3.38-.92,6.34-2.17,8.97-3.82,1.3-.79,2.75-1.71,4.1-2.84,1.39-1.09,2.66-2.29,3.95-3.61h2.41v68.05c0,3.82.49,6.54,1.44,8.14.99,1.62,2.45,2.41,4.39,2.41l.14,2.31ZM857,1659.81c0,2.45-.92,4.58-2.71,6.41-1.83,1.85-3.98,2.78-6.48,2.78s-4.7-.93-6.45-2.78c-1.76-1.69-2.61-3.82-2.61-6.41s.86-4.74,2.64-6.59c1.85-1.78,3.96-2.7,6.43-2.7s4.74.9,6.5,2.64c1.78,1.78,2.68,4,2.68,6.66"/><path class="cls-2" d="M907.5,1655.18c0,1.83-.56,3.31-1.62,4.42-.42.42-.95.72-1.53.97-.53.23-1.2.39-1.87.39h-.88c-1.3-.16-2.15-.32-2.55-.6-.49-.25-1.11-.86-1.99-1.85-.32-.28-.69-.81-1.07-1.41-.35-.63-.74-1.13-1.16-1.43-.93-.72-2.08-1.07-3.49-1.07-1.06,0-2.08.58-3.01,1.74-.44.55-.86,1.36-1.25,2.57-.37,1.2-.58,2.43-.58,3.68s.21,2.68.69,4.23c0,.16.51,1.76,1.6,4.93.86,2.57,1.48,5,1.87,7.31.44,2.24.63,4.9.63,7.91v.88h14.99v5.18h-14.99v57.55c0,3.7.44,6.43,1.43,8.07.93,1.69,2.36,2.5,4.4,2.5l.07,2.27h-25v-2.27c1.94,0,3.38-.93,4.35-2.75.99-1.69,1.48-4.32,1.48-7.89v-57.48h-9.85v-5.18h9.85c0-1.5-.07-3.26-.25-5.21-.07-1.97-.3-4.49-.6-7.49,0-1.94-.05-3.86-.21-5.74-.14-1.85-.23-3.51-.39-4.9,0-2.5.56-4.9,1.6-7.31.93-2.01,2.22-4.09,4-6.22,3.06-3.72,7.31-5.6,12.74-5.6,1.83,0,3.49.23,4.91.6,1.43.44,2.78,1.18,4,2.24,2.48,1.74,3.68,4.07,3.68,6.96"/><path class="cls-2" d="M971.19,1748.99c-1.71,2.66-3.61,5.02-5.64,7.1-2.08,2.08-4.3,3.89-6.69,5.41-4.72,2.82-9.88,4.21-15.43,4.21-9.18,0-16.82-3.63-22.95-10.87-6.01-7.29-9.09-16.61-9.09-28.01,0-6.45.69-12.19,2.04-17.25,1.29-5,3.35-9.39,6.15-13.14,5.48-7.42,12.88-11.12,22.18-11.12,8.07,0,14.55,3.15,19.31,9.46,2.57,3.22,4.56,7.01,6.04,11.43,1.46,4.37,2.2,9.25,2.2,14.71h-44.85c0,5.69.65,10.76,1.85,15.22,1.16,4.44,2.89,8.37,5.2,11.73,4.63,6.55,10.73,9.83,18.32,9.83,3.61,0,7.1-.93,10.41-2.73,1.48-.79,3.03-1.8,4.42-3.07,1.41-1.3,2.78-2.75,4.14-4.44l2.38,1.55ZM956.46,1712.59c0-7.52-1.32-13.37-4.05-17.63-2.64-4.21-6.5-6.36-11.4-6.36-5.48,0-9.6,2.29-12.35,6.8-2.75,4.51-4.19,11.2-4.19,20.05v1.25h23.48c1.85,0,3.33-.07,4.58-.23,1.11-.16,1.97-.35,2.43-.62,1.02-.6,1.5-1.67,1.5-3.26"/><rect class="cls-2" x="6.4" y="1709.7" width="243.92" height="11.1"/><rect class="cls-2" x="1002.86" y="1709.7" width="243.92" height="11.1"/></svg>